<svg id="55335735-f423-4899-b135-8a8960477211" data-name="Layer 1" xmlns="http://www.w3.org/2000/svg" viewBox="0 0 241.05 343.22"><defs><style>.\31 8435473-44c6-410b-beb9-909cd993e0b4{fill:#bb9f3f;}</style></defs><title>malt</title><path class="18435473-44c6-410b-beb9-909cd993e0b4" d="M649.21,490.52c25.8,0,110.08-7.84,111.36-108.62a5.19,5.19,0,0,0-3.62-5,108.53,108.53,0,0,0-18.7-3.64c4.74-43.24-16-70.18-17-71.34a5.16,5.16,0,0,0-5.61-1.75q-2,.63-4,1.35c-2.34-22.29-13.43-35.61-13.94-36.23a5.27,5.27,0,0,0-5.26-1.68,39.15,39.15,0,0,0-9.91,4.29c-13.08-26.54-38.46-37.77-40.4-38.6a5.13,5.13,0,0,0-3.39-.27,5.23,5.23,0,0,0-.75.23c-1.26.53-27.21,11.71-40.49,38.63a39.15,39.15,0,0,0-9.91-4.29,5.27,5.27,0,0,0-5.26,1.68c-0.51.62-11.6,13.93-13.94,36.23q-1.94-.71-4-1.35a5.17,5.17,0,0,0-5.62,1.75c-0.93,1.16-21.72,28.09-17,71.34a108.3,108.3,0,0,0-18.71,3.64,5.22,5.22,0,0,0-3.66,5c1.25,100.78,85.56,108.62,111.36,108.62,1.5,0,3.13,0,4.13-.06v76.4a5,5,0,1,0,10,0V529.95c0-9.63,3.45-15.9,8.89-17.24a12.06,12.06,0,0,1,12.7,5.71c2.53,4.91-1,9.54-4.47,12.53a5.21,5.21,0,0,0,3.45,9.13,5.28,5.28,0,0,0,3.43-1.27c8.59-7.48,11.19-16.9,6.92-25.18-4.37-8.45-15.2-13.29-24.48-11a27.65,27.65,0,0,0-6.43,2.81v-15C646,490.5,647.7,490.52,649.21,490.52Zm100.9-104.68c-3.14,85-71.26,94.27-100.76,94.27-1.51,0-2.86,0-4-.07,0.95-46.66,15.56-71.92,34.58-84.89a5.18,5.18,0,0,0,1.07-.72c13.42-8.76,28.91-11.58,43.3-11.58A115.48,115.48,0,0,1,750.11,385.85ZM709,313.93c2-.95,4-1.82,6.12-2.61C720,319,731.41,341,727.87,372.49q-1.76-.05-3.58-0.05c-12.48,0-28.12,2-42.81,9.7a56.4,56.4,0,0,0-13.56-25.94C672,348,684.84,325.58,709,314Zm-49.11,35a63.44,63.44,0,0,0-18.34-9.9,5.08,5.08,0,0,0-.58-0.11c-0.13,0-.26-0.06-0.4-0.08a28.83,28.83,0,0,0-1,0c-0.12,0-.23,0-0.35.07a5.09,5.09,0,0,0-.64.12,63.44,63.44,0,0,0-18.34,9.9,111.66,111.66,0,0,0-18.29-25.23c17-35.49,36.76-37.63,38.13-37.73,1.49,0.11,21.16,2.35,38.14,37.73A111.65,111.65,0,0,0,659.92,348.9Zm31.89-74.06A64,64,0,0,1,701.6,306a89.55,89.55,0,0,0-15.43,10.3,102.94,102.94,0,0,0-16.65-24.42C674.92,286.36,684,278.21,691.81,274.84Zm-51.73-35c6.09,3.08,24.37,13.71,33.81,34.09a125.27,125.27,0,0,0-12.07,11.19C650.06,276,640.75,276,640.09,276h0c-0.65,0-10,0-21.74,9.09A126.17,126.17,0,0,0,606.25,274C615.67,253.73,634,242.91,640.08,239.81Zm-51.73,35c7.86,3.37,16.87,11.53,22.26,17A103,103,0,0,0,594,316.3,89.55,89.55,0,0,0,578.54,306,64.7,64.7,0,0,1,588.35,274.84ZM565,311.34c28.11,10.46,42.83,36,47.21,44.86a56.4,56.4,0,0,0-13.56,25.94c-14.69-7.66-30.33-9.7-42.81-9.7q-1.82,0-3.58.05C548.76,341.17,560.2,319,565,311.34ZM630.8,480.11c-29.5,0-97.62-9.3-100.76-94.29a116.64,116.64,0,0,1,25.82-3c14.38,0,29.86,2.82,43.28,11.57a5.18,5.18,0,0,0,1.1.74c19,13,33.62,38.24,34.57,84.89C633.65,480.09,632.31,480.11,630.8,480.11Zm9.28-41.2c-6.48-25.07-18.35-41-31.94-50.9a47,47,0,0,1,13.53-26.56,5.16,5.16,0,0,0,.88-0.86A54.63,54.63,0,0,1,640,349.52C646,351.83,667.91,362,672,388,658.42,397.95,646.55,413.84,640.07,438.91Z" transform="translate(-519.51 -228.86)"/></svg>