<svg id="stamp" xmlns="http://www.w3.org/2000/svg" viewBox="0 0 200 200"><defs><style>.cls-1{fill:#000100;}</style></defs><title>stamp</title><path id="stamp-simbol" class="cls-1" d="M101.1,71V56.51H99V71a34,34,0,0,0-21.53,8.32,25,25,0,0,0,0,38.52A34,34,0,0,0,99,126.16v17.91h2.15v-17.9c17-.44,30.85-12.76,30.85-27.59S118.14,71.42,101.1,71ZM99,124c-16-.54-28.44-11.66-28.44-25.43S83,73.69,99,73.15V124Zm2.15,0V73.14c15.86,0.43,28.7,11.79,28.7,25.44S117,123.58,101.1,124Z"/><g id="text"><path class="cls-1" d="M20.5,60.77A1.63,1.63,0,0,1,20,60.35a1.75,1.75,0,0,1-.31-0.58,1.73,1.73,0,0,1-.08-0.65,1.69,1.69,0,0,1,.61-1.18,1.73,1.73,0,0,1,1.23-.39,1.65,1.65,0,0,1,.65.19,1.63,1.63,0,0,1,.53.43A1.73,1.73,0,0,1,23,59.39a1.69,1.69,0,0,1-.61,1.18,1.73,1.73,0,0,1-1.23.39A1.63,1.63,0,0,1,20.5,60.77Z"/><path class="cls-1" d="M25.56,41.45l1.51-1.72,5.6,1.21-2-5.35,1.52-1.73,8.35,6.66L39,42.34,33.53,38l1.67,4.4-0.82.94-4.63-1,5,4.77-1.52,1.73Z"/><path class="cls-1" d="M40.77,26.28l2.11-1.64,9.64,6-2.08,1.62-2.15-1.43-3,2.31,0.86,2.43-2,1.55Zm5.91,3.44-3.5-2.38,1.43,4Z"/><path class="cls-1" d="M51.88,18.5l3.5-1.87a4.64,4.64,0,0,1,1.56-.54,3.38,3.38,0,0,1,1.38.08,2.89,2.89,0,0,1,1.12.61,3.61,3.61,0,0,1,.82,1,3.52,3.52,0,0,1,.46,1.82,3.35,3.35,0,0,1-.55,1.7L64.27,24l-2.34,1.25-3.6-2.52-1.19.63L59,26.8l-2.07,1.11Zm5.66,2.43a1.46,1.46,0,0,0-.22-2.66,1.42,1.42,0,0,0-1.11.16l-1.31.7,1.34,2.5Z"/><path class="cls-1" d="M77.58,16.91A5,5,0,0,1,77.09,18a5.68,5.68,0,0,1-.78,1,6,6,0,0,1-1,.86A5.64,5.64,0,0,1,74,20.5a5.77,5.77,0,0,1-2.24.32,5.13,5.13,0,0,1-2-.54A5.23,5.23,0,0,1,68.09,19a6.39,6.39,0,0,1-1.43-4.21A5.25,5.25,0,0,1,68.42,11a5.58,5.58,0,0,1,2-1.14A5.85,5.85,0,0,1,73,9.55a4.89,4.89,0,0,1,2.25.89l-1.05,2a4,4,0,0,0-1.42-.66,2.92,2.92,0,0,0-1.62.12,3.08,3.08,0,0,0-1.14.67,2.82,2.82,0,0,0-.69,1,3.33,3.33,0,0,0-.24,1.22A4.06,4.06,0,0,0,70,17.29a3.14,3.14,0,0,0,.92.8,2.86,2.86,0,0,0,1.14.36,3,3,0,0,0,1.28-.16,3.71,3.71,0,0,0,.91-0.43,3,3,0,0,0,.61-0.54,2.92,2.92,0,0,0,.4-0.63c0.11-.22.2-0.44,0.3-0.67Z"/><path class="cls-1" d="M88.19,17.16A5.57,5.57,0,0,1,85.95,17a5.36,5.36,0,0,1-3.32-2.52,6,6,0,0,1-.63-4.4,5.48,5.48,0,0,1,.9-1.92,5.43,5.43,0,0,1,1.57-1.42,5.82,5.82,0,0,1,4.35-.63,5.39,5.39,0,0,1,3.32,2.51,6,6,0,0,1,.63,4.39,5.37,5.37,0,0,1-2.47,3.36A5.59,5.59,0,0,1,88.19,17.16Zm-0.32-2.25a2.86,2.86,0,0,0,1.21-.45,2.9,2.9,0,0,0,.84-0.86,3.28,3.28,0,0,0,.44-1.15A4.14,4.14,0,0,0,90,9.88a3.19,3.19,0,0,0-.75-1,2.87,2.87,0,0,0-1-.58,3.18,3.18,0,0,0-2.51.36,2.79,2.79,0,0,0-.85.85,3.18,3.18,0,0,0-.44,1.14,4.13,4.13,0,0,0,.37,2.57,3.31,3.31,0,0,0,.75,1,2.85,2.85,0,0,0,1.06.59A2.9,2.9,0,0,0,87.86,14.91Z"/><path class="cls-1" d="M106.82,5.45l2.65,0.33,1.61,8.06,3.5-7.41,2.54,0.32-5.22,10.1-2.52-.32Z"/><path class="cls-1" d="M123.67,8.32L126,8.94l-2.77,10.3-2.33-.63Z"/><path class="cls-1" d="M133.34,11.23l2.12,0.91L137,20.33,139.71,14l2.19,0.94-4.21,9.81-2-.86-1.57-8.35L131.33,22,129.14,21Z"/><path class="cls-1" d="M152.15,31.29a5,5,0,0,1-1.16.28,5.63,5.63,0,0,1-1.28,0,5.93,5.93,0,0,1-1.32-.3,5.68,5.68,0,0,1-1.28-.63,5.79,5.79,0,0,1-1.63-1.57,5.12,5.12,0,0,1-.78-4,6.37,6.37,0,0,1,2.45-3.71,5.25,5.25,0,0,1,4-.91,5.59,5.59,0,0,1,2.12.87,5.86,5.86,0,0,1,1.87,1.89,4.88,4.88,0,0,1,.67,2.33l-2.25.41a4,4,0,0,0-.35-1.53,2.9,2.9,0,0,0-1.08-1.21A3.07,3.07,0,0,0,151,22.7a2.82,2.82,0,0,0-1.21.07,3.29,3.29,0,0,0-1.11.56,4.08,4.08,0,0,0-1.44,2.18,3.15,3.15,0,0,0-.07,1.22,2.88,2.88,0,0,0,.41,1.12,3,3,0,0,0,.91.91,3.65,3.65,0,0,0,.9.45,3,3,0,0,0,.8.15,2.92,2.92,0,0,0,.74-0.06l0.71-.17Z"/><path class="cls-1" d="M162.21,28.43L164,30l-7.08,8-1.81-1.6Z"/><path class="cls-1" d="M169.7,38.82l-2.25-2.62,1.62-1.39,6.08,7.08-1.61,1.39-2.24-2.61-6.48,5.56-1.58-1.84Z"/><path class="cls-1" d="M178,57.18a1.64,1.64,0,0,1,.65-0.19,1.75,1.75,0,0,1,.65.07,1.73,1.73,0,0,1,.58.31,1.68,1.68,0,0,1,.62,1.17,1.73,1.73,0,0,1-.38,1.23,1.68,1.68,0,0,1-1.17.62,1.75,1.75,0,0,1-.65-0.07,1.78,1.78,0,0,1-.58-0.31,1.66,1.66,0,0,1-.43-0.52,1.64,1.64,0,0,1-.19-0.65,1.74,1.74,0,0,1,.38-1.23A1.61,1.61,0,0,1,178,57.18Z"/><path class="cls-1" d="M184.49,82.8a5.82,5.82,0,0,1-.57-0.22,3.67,3.67,0,0,1-.84-0.54,4.79,4.79,0,0,1-.87-1,4.67,4.67,0,0,1-.66-1.51,5.12,5.12,0,0,1-.13-2.14,4.8,4.8,0,0,1,.72-1.88,5.27,5.27,0,0,1,1.45-1.47,6.55,6.55,0,0,1,2.06-.92,6.4,6.4,0,0,1,2.21-.2,5.37,5.37,0,0,1,2,.56,4.87,4.87,0,0,1,1.57,1.27,5,5,0,0,1,1,1.92,4.72,4.72,0,0,1,.17,1.64,4.84,4.84,0,0,1-.29,1.27,3.66,3.66,0,0,1-.47.88,5.26,5.26,0,0,1-.39.48l-0.53-.46,0.32-.41a3,3,0,0,0,.39-0.73,4.17,4.17,0,0,0,.25-1.07,3.88,3.88,0,0,0-.14-1.4,4.28,4.28,0,0,0-.83-1.68,4,4,0,0,0-1.35-1.06,4.55,4.55,0,0,0-1.71-.44,6,6,0,0,0-1.92.2,5.86,5.86,0,0,0-1.77.78A4.78,4.78,0,0,0,182.8,76a3.92,3.92,0,0,0-.66,1.59,4.4,4.4,0,0,0,.11,1.89,3.61,3.61,0,0,0,.55,1.22,4.2,4.2,0,0,0,.74.8,3.49,3.49,0,0,0,.71.46l0.48,0.21Z"/><path class="cls-1" d="M183.87,93.9A5.12,5.12,0,0,1,185.2,90a5.49,5.49,0,0,1,1.68-1.23,6.22,6.22,0,0,1,4.38-.33,5.6,5.6,0,0,1,1.86,1A5.09,5.09,0,0,1,194.44,91a5.41,5.41,0,0,1,.32,4.23A5.07,5.07,0,0,1,193.69,97,5.6,5.6,0,0,1,192,98.2a6.23,6.23,0,0,1-4.38.33,5.5,5.5,0,0,1-1.85-1A5.11,5.11,0,0,1,183.87,93.9Zm0.72-.05a4.41,4.41,0,0,0,.51,1.81A4.12,4.12,0,0,0,186.25,97a4.76,4.76,0,0,0,1.62.79,5.54,5.54,0,0,0,1.91.18,5.6,5.6,0,0,0,1.88-.46,4.68,4.68,0,0,0,1.48-1,4.29,4.29,0,0,0,.93-1.49,4.61,4.61,0,0,0-.27-3.67A4.27,4.27,0,0,0,192.65,90a4.66,4.66,0,0,0-1.62-.79,5.62,5.62,0,0,0-1.92-.18,5.53,5.53,0,0,0-1.87.46,4.78,4.78,0,0,0-1.48,1,4.1,4.1,0,0,0-.93,1.49A4.41,4.41,0,0,0,184.59,93.84Z"/><path class="cls-1" d="M194.91,106.6l-0.09.79-10.23,5.74L194,114.2l-0.08.75-10.6-1.2,0.09-.79,10.1-5.75-9.33-1.05,0.08-.75Z"/><path class="cls-1" d="M181.26,129.07a5.45,5.45,0,0,1-.37-0.49,3.75,3.75,0,0,1-.44-0.9,4.81,4.81,0,0,1-.25-1.28,4.71,4.71,0,0,1,.22-1.64,5.12,5.12,0,0,1,1-1.9,4.83,4.83,0,0,1,1.59-1.23,5.3,5.3,0,0,1,2-.5,6.51,6.51,0,0,1,2.24.28,6.37,6.37,0,0,1,2,1,5.38,5.38,0,0,1,1.4,1.51,4.86,4.86,0,0,1,.68,1.9,5,5,0,0,1-.19,2.14,4.68,4.68,0,0,1-.71,1.49,4.84,4.84,0,0,1-.91.94,3.74,3.74,0,0,1-.86.51,5.52,5.52,0,0,1-.58.2l-0.22-.67,0.48-.18a3,3,0,0,0,.72-0.42,4.26,4.26,0,0,0,.77-0.78,3.85,3.85,0,0,0,.61-1.27,4.29,4.29,0,0,0,.16-1.86,4,4,0,0,0-.6-1.6,4.57,4.57,0,0,0-1.24-1.26,6,6,0,0,0-1.75-.83,5.85,5.85,0,0,0-1.92-.25,4.76,4.76,0,0,0-1.73.39,3.92,3.92,0,0,0-1.39,1,4.38,4.38,0,0,0-.89,1.67,3.59,3.59,0,0,0-.16,1.33,4.26,4.26,0,0,0,.22,1.07,3.54,3.54,0,0,0,.37.76l0.3,0.43Z"/><path class="cls-1" d="M186.78,139l-2.8,5.75-0.65-.32,2.46-5.06-3.62-1.76-1.93,4-0.65-.32,1.93-4-4-2-2.65,5.44-0.65-.31,3-6.13Z"/><path class="cls-1" d="M179.82,151.82l-1.88,2.69a5.72,5.72,0,0,1-1.19,1.3,2.92,2.92,0,0,1-1.19.57,2.42,2.42,0,0,1-1.16,0,3.93,3.93,0,0,1-2-1.39,2.41,2.41,0,0,1-.44-1.07,2.93,2.93,0,0,1,.12-1.31,5.7,5.7,0,0,1,.81-1.57l1.44-2.06-3.71-2.59,0.44-.63Zm-6.45-.23a2.89,2.89,0,0,0-.65,2,2.67,2.67,0,0,0,2.88,2,2.89,2.89,0,0,0,1.64-1.3l1.56-2.24-3.86-2.69Z"/><path class="cls-1" d="M168.22,165.3l2.88-3,0.5,0.48-6.29,6.51-0.5-.48,2.88-3-7.18-6.94,0.53-.55Z"/><path class="cls-1" d="M154.35,164.63l0.29-.25,0.71,0.85-0.81.68-0.71-.85-0.26-1.41,0.37-.31Z"/><path class="cls-1" d="M147.46,182.51l-2.59,1.34a8.79,8.79,0,0,1-2.28.83,5.2,5.2,0,0,1-2.12,0,4.35,4.35,0,0,1-1.86-.91,6.76,6.76,0,0,1-2.21-4.26,4.41,4.41,0,0,1,.33-2,5.08,5.08,0,0,1,1.23-1.73,8.8,8.8,0,0,1,2-1.38l2.59-1.34Zm-7.3-7.43a7,7,0,0,0-1.7,1.19,4.21,4.21,0,0,0-1,1.48,3.76,3.76,0,0,0-.23,1.75,5.43,5.43,0,0,0,.62,2,5.29,5.29,0,0,0,1.25,1.64,3.8,3.8,0,0,0,1.57.81,4.27,4.27,0,0,0,1.82,0,7.49,7.49,0,0,0,2-.73l1.93-1L142.2,174Z"/><path class="cls-1" d="M132.28,189.44l-0.72.26L128,179.64l0.72-.26Z"/><path class="cls-1" d="M114.48,187.62l2.79-.58,0.15,0.7-3.54.73-0.81-3.92a4.41,4.41,0,0,1,.55-0.59,5.37,5.37,0,0,1,.78-0.59,6.31,6.31,0,0,1,1.05-.53,8.15,8.15,0,0,1,1.36-.4,5.33,5.33,0,0,1,2.15,0,4.65,4.65,0,0,1,1.84.8,5.23,5.23,0,0,1,1.39,1.53,6.56,6.56,0,0,1,.83,2.14,6.21,6.21,0,0,1,.07,2.21,5.48,5.48,0,0,1-.67,2,4.83,4.83,0,0,1-1.37,1.5,5.09,5.09,0,0,1-2,.85,4.6,4.6,0,0,1-1.64.08,4.74,4.74,0,0,1-1.24-.36,3.83,3.83,0,0,1-.85-0.52,5.76,5.76,0,0,1-.45-0.41l0.48-.51,0.4,0.33a3.29,3.29,0,0,0,.72.43,4.27,4.27,0,0,0,1,.31,3.51,3.51,0,0,0,1.33,0,4.45,4.45,0,0,0,1.75-.75,4,4,0,0,0,1.16-1.29,4.62,4.62,0,0,0,.54-1.69,5.86,5.86,0,0,0-.09-1.93,6,6,0,0,0-.68-1.81,4.58,4.58,0,0,0-1.16-1.34,4,4,0,0,0-1.56-.74,4.22,4.22,0,0,0-1.85,0,6.34,6.34,0,0,0-1.93.68,5.08,5.08,0,0,0-1.15.89Z"/><path class="cls-1" d="M106.83,194.81l-0.77.05-0.7-10.65,0.77-.05Z"/><path class="cls-1" d="M94.7,194.18l4.14,0.26,0,0.69-9-.57,0-.69,4.14,0.26,0.63-10,0.77,0Z"/><path class="cls-1" d="M81,193.06l-0.75-.16-2.07-11.34L79,181.74l0.65,3.65,4.92,1,2.06-3.08,0.81,0.17Zm-1.17-6.9,1,5.88,3.32-5Z"/><path class="cls-1" d="M68.88,189.75l-0.72-.28,3.57-9.29L66.09,178l0.26-.67,6.36,2.45Z"/><path class="cls-1" d="M49.15,169a8.34,8.34,0,0,1,.91-0.18,4.24,4.24,0,0,1,.93,0,4,4,0,0,1,.95.2,3.63,3.63,0,0,1,.95.49,3.76,3.76,0,0,1,1,.93,2.88,2.88,0,0,1,.47,1.06,2.59,2.59,0,0,1,0,1.1,2.87,2.87,0,0,1-.46,1,3,3,0,0,1-1.67,1.24,6.75,6.75,0,0,1-2.23.23l0,0.72a4.2,4.2,0,0,1-.07,1.11,2.76,2.76,0,0,1-.47,1.07,2.12,2.12,0,0,1-.61.58,2.24,2.24,0,0,1-1.74.3,2.77,2.77,0,0,1-1-.46,2.64,2.64,0,0,1-1-1.22,3.2,3.2,0,0,1-.07-1.64l0.65,0a2.59,2.59,0,0,0,.09,1.41,2.1,2.1,0,0,0,.72.84,2,2,0,0,0,.7.32,1.63,1.63,0,0,0,.65,0,1.42,1.42,0,0,0,.56-0.23,1.56,1.56,0,0,0,.42-0.41,2.22,2.22,0,0,0,.38-1,6.33,6.33,0,0,0,0-1.42L48.52,170l-2.27.76L46,170l2.41-.79-0.34-2.78L48.87,167Zm0.7,5.37a5.49,5.49,0,0,0,1.95-.17,2.56,2.56,0,0,0,1.34-1,2.19,2.19,0,0,0,.35-0.78,1.92,1.92,0,0,0,0-.82,2.22,2.22,0,0,0-.35-0.8,2.79,2.79,0,0,0-.72-0.71,3,3,0,0,0-1.61-.55,4,4,0,0,0-.8,0q-0.4.06-.78,0.17Z"/><path class="cls-1" d="M30.11,154.36l1.83,2.18-0.55.46-2.33-2.77,3.06-2.57a4.63,4.63,0,0,1,.78.2,5.56,5.56,0,0,1,.9.41,6.41,6.41,0,0,1,1,.68,8.18,8.18,0,0,1,1,1,5.34,5.34,0,0,1,1,1.88,4.66,4.66,0,0,1,.17,2,5.27,5.27,0,0,1-.68,2,6.58,6.58,0,0,1-1.49,1.74,6.22,6.22,0,0,1-1.91,1.12,5.5,5.5,0,0,1-2,.33,4.84,4.84,0,0,1-2-.49,5.1,5.1,0,0,1-1.69-1.34,4.61,4.61,0,0,1-.85-1.41,4.68,4.68,0,0,1-.28-1.26,3.78,3.78,0,0,1,.05-1,5.63,5.63,0,0,1,.15-0.59L27,157.07q0,0.16-.11.51a3.27,3.27,0,0,0,0,.84,4.31,4.31,0,0,0,.22,1.06,3.52,3.52,0,0,0,.67,1.15,4.45,4.45,0,0,0,1.49,1.19,4.05,4.05,0,0,0,1.69.4,4.61,4.61,0,0,0,1.74-.33,5.87,5.87,0,0,0,1.66-1,6,6,0,0,0,1.27-1.46,4.62,4.62,0,0,0,.63-1.66,4,4,0,0,0-.09-1.72,4.23,4.23,0,0,0-.88-1.63A6.33,6.33,0,0,0,33.71,153a5,5,0,0,0-1.33-.59Z"/><path class="cls-1" d="M19.94,150.81L18.32,148a6,6,0,0,1-.69-1.63,3,3,0,0,1,0-1.33,2.38,2.38,0,0,1,.5-1,3.52,3.52,0,0,1,.94-0.78,3.27,3.27,0,0,1,1.87-.47,2.67,2.67,0,0,1,1.79.93l2.8-4.57,0.44,0.76-2.75,4.47,1.59,2.74,4-2.32,0.39,0.66Zm2.83-5.74q-1.33-2.28-3.32-1.12a2.12,2.12,0,0,0-1.14,1.47,3.13,3.13,0,0,0,.53,2.05l1.34,2.31,4-2.32Z"/><path class="cls-1" d="M11.75,134.41l-0.28-.72,8.4-7.9,0.31,0.82-2.71,2.53,1.8,4.69,3.7,0.05,0.3,0.78Zm5.16-4.74-4.37,4.06,6,0.09Z"/><path class="cls-1" d="M7.93,122.4l-0.66-3.21a5.72,5.72,0,0,1-.12-1.76,2.92,2.92,0,0,1,.41-1.25,2.44,2.44,0,0,1,.83-0.81,3.76,3.76,0,0,1,1.15-.43,3.71,3.71,0,0,1,1.23-.06,2.44,2.44,0,0,1,1.08.41,2.94,2.94,0,0,1,.87,1,5.74,5.74,0,0,1,.58,1.67l0.5,2.46,4.44-.91,0.15,0.75Zm4.61-4.52a2.88,2.88,0,0,0-1-1.84,2.26,2.26,0,0,0-1.85-.29,2.26,2.26,0,0,0-1.58,1,2.88,2.88,0,0,0-.19,2.08l0.55,2.68,4.61-.94Z"/><path class="cls-1" d="M5.54,107.52l0-.77,4.75-.16L10,99.88,5.3,100l0-.77,10.67-.35,0,0.77-5.2.17L11,106.57l5.2-.17,0,0.77Z"/><path class="cls-1" d="M5.81,91l0.08-.76,10.62,1.09-0.08.76Z"/><path class="cls-1" d="M17.69,75.77a5.64,5.64,0,0,1,.4.47,3.69,3.69,0,0,1,.49.87,4.8,4.8,0,0,1,.31,1.27A4.69,4.69,0,0,1,18.76,80a5.12,5.12,0,0,1-.9,1.95,4.81,4.81,0,0,1-1.52,1.31,5.28,5.28,0,0,1-2,.61,6.53,6.53,0,0,1-2.25-.16,6.37,6.37,0,0,1-2-.87,5.38,5.38,0,0,1-1.48-1.43,4.85,4.85,0,0,1-.78-1.87,5,5,0,0,1,.07-2.15,4.7,4.7,0,0,1,.63-1.53,4.8,4.8,0,0,1,.85-1,3.67,3.67,0,0,1,.83-0.56,5.77,5.77,0,0,1,.57-0.24L11,74.77,10.55,75a3,3,0,0,0-.69.46,4.22,4.22,0,0,0-.72.82,3.84,3.84,0,0,0-.54,1.3,4.28,4.28,0,0,0-.06,1.87A4,4,0,0,0,9.21,81a4.6,4.6,0,0,0,1.3,1.19,6,6,0,0,0,1.79.73,5.88,5.88,0,0,0,1.93.15,4.77,4.77,0,0,0,1.71-.48,3.91,3.91,0,0,0,1.33-1.1,4.36,4.36,0,0,0,.8-1.72,3.58,3.58,0,0,0,.09-1.33,4.29,4.29,0,0,0-.27-1.05,3.49,3.49,0,0,0-.41-0.74l-0.32-.41Z"/></g></svg>